<!-- This Source Code Form is subject to the terms of the Mozilla Public
   - License, v. 2.0. If a copy of the MPL was not distributed with this
   - file, You can obtain one at http://mozilla.org/MPL/2.0/. -->
<svg width="16" height="16" xmlns="http://www.w3.org/2000/svg" fill="context-fill" fill-opacity="context-fill-opacity">
  <path d="M14.87-.01c-.3 0-.59.11-.81.34l-12 11.99c-.03-.1-.06-.21-.06-.32v-2h1.5l2.64-1.76.89-.89L6.5 7l-3 2H2V4a1 1 0 011-1h8.38l1.97-1.97C13.23 1.02 13.12 1 13 1H3a3 3 0 00-3 3v8c0 .67.23 1.28.6 1.78l.82-.82-1.06 1.06c-1.11 1.09.54 2.73 1.62 1.62l13.7-13.7c.44-.45.44-1.17 0-1.61a1.16 1.16 0 00-.81-.34zm1.1 3.7L14 5.66V10l-1.5-1-1.5 1-.8-.54-.6.6L11 11l1.5-1 1.5 1v1a1 1 0 01-1 1H6.66l-2 2H13a3 3 0 003-3V4c0-.1-.01-.21-.03-.31z"/>
</svg>
