<!-- This Source Code Form is subject to the terms of the Mozilla Public
   - License, v. 2.0. If a copy of the MPL was not distributed with this
   - file, You can obtain one at http://mozilla.org/MPL/2.0/. -->
<svg xmlns="http://www.w3.org/2000/svg" width="16" height="16" viewBox="0 0 16 16">
  <path fill="context-fill" d="M13 1H3a3 3 0 00-3 3v8a3 3 0 003 3h10a3 3 0 003-3V4a3 3 0 00-3-3zm1 11a1 1 0 01-1 1H3a1 1 0 01-1-1V4a1 1 0 011-1h10a1 1 0 011 1z"/>
  <path fill="context-stroke" d="M3 8h10V7h-3V6c0-.47-.53-1-1-1H5c-.47 0-1 .53-1 1v1H3z"/>
</svg>