<!-- This Source Code Form is subject to the terms of the Mozilla Public
   - License, v. 2.0. If a copy of the MPL was not distributed with this
   - file, You can obtain one at http://mozilla.org/MPL/2.0/. -->
<svg xmlns="http://www.w3.org/2000/svg" width="16" height="16" viewBox="0 0 16 16" fill="context-fill">
  <path d="M5 12h1v3H5z"/>
  <path d="M8.36 10.61c-.26-.22-3.75-4.73-3-7.06 1.04-3.24 5.17-3.71 6.48.08.77 2.24-2.25 8.03-3.48 6.98zM10 12h1v3h-1z"/>
  <path fill="#e9a400" d="M10.56 13.46c-1.78-.12-3.93-4.72-3.19-7.05 1.04-3.24 5.3-3.76 6.49.08.98 3.17-1.52 7.1-3.3 6.97z"/>
  <path fill="context-stroke" d="M5.53 12.69c-2.05.28-4.6-3.71-3.73-7.07.85-3.3 5.28-3.75 6.48.08.91 2.9-.88 6.73-2.75 6.99z"/>
</svg>