<!-- This Source Code Form is subject to the terms of the Mozilla Public
   - License, v. 2.0. If a copy of the MPL was not distributed with this
   - file, You can obtain one at http://mozilla.org/MPL/2.0/. -->
<svg xmlns="http://www.w3.org/2000/svg" width="16" height="16" viewBox="0 0 16 16" fill="context-fill" fill-opacity="context-fill-opacity">
  <path d="M13.07 1.51c-.72-.41-1.93-.31-2.49.3-.71.78-.11 2.19-.63 3.1l-.75 1.3-2.92.05-1 1.73 6.06 3.5 1.01-1.73-1.42-2.55.75-1.3c.53-.91 2.05-1.1 2.37-2.1.25-.8-.26-1.88-.98-2.3zM5.03 8.42a8.89 8.89 0 01-3.11 3.4c-.64.37.33 1.31 1.3.75a9.09 9.09 0 003.11-3.4zm1.69.98c-.75 1.3-1.35 2.34-2.74 3.15-.64.37.33 1.31 1.3.75 1.33-.77 1.97-1.83 2.74-3.15zm1.7.98c-.76 1.3-1.11 2.13-2.51 2.94-.64.37.15 1.21 1.12.65 1.37-.75 1.75-1.61 2.51-2.94zm1.56.9c-.75 1.3-.89 1.91-2.28 2.73-.64.37.16 1.21 1.12.65 1.33-.78 1.51-1.41 2.27-2.73z"/>
</svg>