<!-- This Source Code Form is subject to the terms of the Mozilla Public
   - License, v. 2.0. If a copy of the MPL was not distributed with this
   - file, You can obtain one at http://mozilla.org/MPL/2.0/. -->
<svg xmlns="http://www.w3.org/2000/svg" width="16" height="16" viewBox="0 0 16 16" fill="context-fill" fill-opacity="context-fill-opacity">
  <path d="M5 1v2h1v1H5a3 3 0 00-3 3h2a1 1 0 011-1h6a1 1 0 011 1v5a1 1 0 01-1 1H5a1 1 0 01-1-1H2a3 3 0 003 3h6a3 3 0 003-3V7a3 3 0 00-3-3H8V3h1V1zM0 8v3h6V8z"/>
</svg>