<!-- This Source Code Form is subject to the terms of the Mozilla Public
   - License, v. 2.0. If a copy of the MPL was not distributed with this
   - file, You can obtain one at http://mozilla.org/MPL/2.0/. -->
<svg width="16" height="16" xmlns="http://www.w3.org/2000/svg" fill-opacity="context-fill-opacity" viewBox="0 0 16 16">
  <path fill="context-fill" fill-opacity="context-fill-opacity" d="M2 3l4 5v5h2V8l4-5zm8 5.7V13a2 2 0 01-2 2H6a2 2 0 01-2-2V8.7L.44 4.25A2 2 0 012 1h10a2 2 0 011.56 3.25L10 8.7z"/>
  <path fill="context-fill" fill-opacity=".3" d="M3.5 5h7L8 8v5H6V8z"/>
  <path fill="context-stroke" d="M15.5 11H13V8.5c0-.67-2.25-.62-2 0V11H8.5c-.67 0-.67 2 0 2H11v2.5c0 .67 2 .67 2 0V13h2.5c.67 0 .62-2.25 0-2z"/>
</svg>
