<!-- This Source Code Form is subject to the terms of the Mozilla Public
   - License, v. 2.0. If a copy of the MPL was not distributed with this
   - file, You can obtain one at http://mozilla.org/MPL/2.0/. -->
<svg xmlns="http://www.w3.org/2000/svg" width="16" height="16" viewBox="0 0 16 16" fill-opacity="context-fill-opacity">
  <path fill="context-fill" d="M5 4l1 1H2V4zm4 9H2V6h11v3l2 2V6a2 2 0 00-2-2H7.85L6.38 2.54A1.93 1.93 0 005.02 2H2a2 2 0 00-2 2v9c0 1.1.9 2 2 2h9"/>
  <path fill="context-stroke" d="M6.38 7.6l1.7 1.71c.82.9 2.13-.4 1.24-1.22l-1.7-1.71c.39-.2.82-.27 1.25-.31 2.43-.22 3.81 1.8 2.55 4.08l4.36 4.39c.76.67-.66 2.09-1.34 1.35l-4.4-4.37c-2.12.99-4.13-.27-3.97-2.65 0-.44.1-.87.3-1.26z"/>
</svg>
