<!-- This Source Code Form is subject to the terms of the Mozilla Public
   - License, v. 2.0. If a copy of the MPL was not distributed with this
   - file, You can obtain one at http://mozilla.org/MPL/2.0/. -->
<svg xmlns="http://www.w3.org/2000/svg" width="16" height="16" viewBox="0 0 16 16" fill="context-fill" fill-opacity="context-fill-opacity">
  <path d="M8 16a8 8 0 1 1 8-8 8.009 8.009 0 0 1-8 8zM8 2a6 6 0 1 0 6 6 6.006 6.006 0 0 0-6-6z"/>
  <path d="M8 3.125A2.7 2.7 0 005.125 6c0 1.167 1.75 1.167 1.75 0 0-1 .6-1.125 1.125-1.125.502-.039.967.267 1.13.744a.894.894 0 01-.53 1.016A2.74 2.74 0 007.125 9v.337c0 1.163 1.75 1.163 1.75 0v-.37c.044-.362.276-.675.609-.824A2.63 2.63 0 0010.82 5.16 2.843 2.843 0 008 3.125zm0 7.625c-1.114 0-1.671 1.35-.884 2.13.788.79 2.134.23 2.134-.88 0-.69-.56-1.25-1.25-1.25z"/>
</svg>

