<?xml version="1.0" encoding="UTF-8" standalone="no"?>
<!-- Created with Inkscape (http://www.inkscape.org/) -->

<svg
   width="16"
   height="16"
   viewBox="0 0 4.11238 4.1123799"
   version="1.1"
   id="svg5"
   inkscape:version="1.3.2 (091e20e, 2023-11-25, custom)"
   sodipodi:docname="licensed-feature.svg"
   xmlns:inkscape="http://www.inkscape.org/namespaces/inkscape"
   xmlns:sodipodi="http://sodipodi.sourceforge.net/DTD/sodipodi-0.dtd"
   xmlns:xlink="http://www.w3.org/1999/xlink"
   xmlns="http://www.w3.org/2000/svg"
   xmlns:svg="http://www.w3.org/2000/svg">
  <sodipodi:namedview
     id="namedview7"
     pagecolor="#ffffff"
     bordercolor="#000000"
     borderopacity="0.25"
     inkscape:showpageshadow="2"
     inkscape:pageopacity="0.0"
     inkscape:pagecheckerboard="true"
     inkscape:deskcolor="#d1d1d1"
     inkscape:document-units="px"
     showgrid="false"
     inkscape:zoom="54.955164"
     inkscape:cx="14.602813"
     inkscape:cy="8.6252131"
     inkscape:window-width="2560"
     inkscape:window-height="1414"
     inkscape:window-x="-4"
     inkscape:window-y="1436"
     inkscape:window-maximized="1"
     inkscape:current-layer="layer2" />
  <defs
     id="defs2">
    <linearGradient
       inkscape:collect="always"
       id="linearGradient15690">
      <stop
         style="stop-color:#008ca8;stop-opacity:1;"
         offset="0"
         id="stop15686" />
      <stop
         style="stop-color:#f9004b;stop-opacity:1;"
         offset="1"
         id="stop15688" />
    </linearGradient>
    <rect
       x="160.67224"
       y="281.99619"
       width="447.04047"
       height="233.90381"
       id="rect2833" />
    <linearGradient
       inkscape:collect="always"
       xlink:href="#linearGradient15690"
       id="linearGradient15692"
       x1="96.225365"
       y1="76.83271"
       x2="97.218597"
       y2="165.82651"
       gradientUnits="userSpaceOnUse" />
  </defs>
  <g
     inkscape:label="Layer 1"
     inkscape:groupmode="layer"
     id="layer1"
     transform="translate(-30.671891,-55.207438)" />
  <g
     inkscape:groupmode="layer"
     id="layer2"
     inkscape:label="Layer 2"
     transform="translate(-30.671891,-55.207438)">
    <g
       id="g18094"
       transform="matrix(0.02929125,0,0,0.02949895,29.800283,53.645246)">
      <rect
         style="fill:url(#linearGradient15692);fill-opacity:1;stroke-width:7.09065"
         id="rect854"
         width="140.25803"
         height="90.070847"
         x="30.075951"
         y="76.264008"
         ry="13.646381"
         rx="15.732031" />
      <path
         style="font-weight:bold;font-size:192px;font-family:Bahnschrift;-inkscape-font-specification:'Bahnschrift Bold';white-space:pre;fill:#ffffff;stroke-width:28.3238"
         d="m 199.48437,426.27734 q 0,3.5625 1.96875,5.53125 2.0625,1.875 5.8125,1.875 h 4.3125 v 24.75 h -13.125 q -11.71875,0 -18.1875,-6.75 -6.46875,-6.75 -6.46875,-19.03125 V 322.12109 h 25.6875 z m 69.09375,33.5625 q -13.3125,0 -22.78125,-4.96875 -9.375,-4.96875 -14.34375,-14.4375 -4.875,-9.5625 -4.875,-22.96875 v -15.84375 q 0,-13.21875 4.875,-22.59375 4.96875,-9.46875 14.34375,-14.34375 9.46875,-4.96875 22.78125,-4.96875 13.3125,0 22.6875,4.96875 9.46875,4.875 14.34375,14.34375 4.96875,9.375 4.96875,22.59375 v 16.125 q 0,13.3125 -4.96875,22.78125 -4.875,9.375 -14.34375,14.34375 -9.375,4.96875 -22.6875,4.96875 z m -0.0937,-24.75 q 7.78125,0 12.09375,-4.5 4.3125,-4.59375 4.3125,-12.84375 v -16.125 q 0,-8.15625 -4.3125,-12.65625 -4.3125,-4.5 -12.09375,-4.5 -7.6875,0 -12,4.5 -4.21875,4.5 -4.21875,12.65625 v 16.125 q 0,8.25 4.21875,12.84375 4.21875,4.5 12,4.5 z m 106.6875,24.75 q -13.875,0 -23.8125,-5.25 -9.84375,-5.34375 -15,-15.46875 -5.15625,-10.125 -5.15625,-24.375 v -10.40625 q 0,-14.15625 5.15625,-24.09375 5.15625,-10.03125 15,-15.28125 9.9375,-5.25 23.8125,-5.25 7.96875,0 15,1.875 7.125,1.78125 12.75,5.25 5.625,3.46875 9.375,8.4375 v 0 l -16.59375,16.125 v 0 q -3.5625,-3.28125 -8.34375,-5.0625 -4.78125,-1.875 -10.03125,-1.875 -9.75,0 -15.09375,5.25 -5.34375,5.15625 -5.34375,14.625 v 10.40625 q 0,9.75 5.34375,15.09375 5.34375,5.25 15.09375,5.25 5.34375,0 10.125,-1.96875 4.78125,-1.96875 8.25,-5.625 v 0 l 16.59375,17.0625 v 0 q -3.84375,4.875 -9.46875,8.34375 -5.625,3.375 -12.65625,5.15625 -7.03125,1.78125 -15,1.78125 z m 66.46875,-36.46875 45.375,-62.25 h 27.1875 l -69.09375,90.5625 z m -12,-101.25 h 25.6875 v 136.3125 h -25.6875 z m 35.0625,86.0625 21.1875,-12.75 33.09375,63 h -29.71875 z"
         id="text2831"
         transform="matrix(0.36743151,0,0,0.39936304,-25.014202,-32.808101)"
         aria-label="lock" />
    </g>
  </g>
</svg>
