<?xml version="1.0" encoding="UTF-8" standalone="no"?>
<!-- This Source Code Form is subject to the terms of the Mozilla Public
   - License, v. 2.0. If a copy of the MPL was not distributed with this
   - file, You can obtain one at http://mozilla.org/MPL/2.0/. -->

<svg
   width="16"
   height="16"
   viewBox="0 0 16 16"
   version="1.1"
   id="svg6"
   sodipodi:docname="navigation-bar.svg"
   inkscape:version="1.2.2 (732a01da63, 2022-12-09)"
   xmlns:inkscape="http://www.inkscape.org/namespaces/inkscape"
   xmlns:sodipodi="http://sodipodi.sourceforge.net/DTD/sodipodi-0.dtd"
   xmlns="http://www.w3.org/2000/svg"
   xmlns:svg="http://www.w3.org/2000/svg">
  <defs
     id="defs10" />
  <sodipodi:namedview
     id="namedview8"
     pagecolor="#ffffff"
     bordercolor="#000000"
     borderopacity="0.25"
     inkscape:showpageshadow="2"
     inkscape:pageopacity="0.0"
     inkscape:pagecheckerboard="true"
     inkscape:deskcolor="#d1d1d1"
     showgrid="false"
     inkscape:zoom="65.9375"
     inkscape:cx="7.6815166"
     inkscape:cy="7.8483412"
     inkscape:window-width="2552"
     inkscape:window-height="1093"
     inkscape:window-x="118"
     inkscape:window-y="104"
     inkscape:window-maximized="0"
     inkscape:current-layer="svg6"
     showguides="true">
    <sodipodi:guide
       position="8.5687204,8.8720379"
       orientation="0,-1"
       id="guide5029"
       inkscape:locked="false" />
    <sodipodi:guide
       position="8.978199,11.905213"
       orientation="0,-1"
       id="guide5045"
       inkscape:locked="false" />
    <sodipodi:guide
       position="8.4473934,5.2170616"
       orientation="0,-1"
       id="guide5048"
       inkscape:locked="false" />
  </sodipodi:namedview>
  <path
     fill="context-stroke"
     d="M 0.02748817,4.7241706 H 16.002844 v 1.3962086 l -1.557689,0.030332 0.03156,2.7592424 c 0.0075,0.6561774 -0.8467,1.3985724 -1.597537,1.3962064 L 3.2541195,10.275828 C 2.5032817,10.273462 1.6640892,9.535799 1.6565839,8.8796216 L 1.6250238,6.1203792 H 0.02748827 Z"
     id="path4"
     style="display:inline;fill:#280b0b;stroke-width:1.49348"
     sodipodi:nodetypes="ccccssssccc"
     inkscape:label="toolbar" />
  <path
     id="path4865"
     style="fill:#ffb380;stroke-width:0.545738"
     d="M 4.921875,4.0843325 C 4.804331,4.0897993 4.6833737,4.1401438 4.5722656,4.25225 L 1.8984375,7.0377048 a 0.53465549,0.55705027 0 0 0 0,0.7803224 L 4.5722656,10.609408 C 5.0801882,11.127465 5.8273071,10.340861 5.3300781,9.8172331 L 3.5605469,7.9859447 H 7.625 c 0.7110911,0 0.7110911,-1.1141819 0,-1.1141819 H 3.5664062 L 5.3300781,5.0325724 C 5.7060073,4.6234889 5.341675,4.0648082 4.921875,4.0843325 Z"
     inkscape:label="arrow-left" />
  <path
     d="M 8.8521862,6.8976147 H 12.635495 L 10.99058,5.07184 C 10.541965,4.5517708 11.224855,3.7882655 11.698392,4.2972691 l 2.492298,2.7663244 a 0.49845981,0.55326495 0 0 1 0,0.7745721 l -2.492298,2.7718564 c -0.473537,0.514537 -1.17138,-0.265566 -0.707812,-0.7856363 l 1.6499,-1.8202413 H 8.8521862 c -0.6629519,0 -0.6629519,-1.1065297 0,-1.1065297 z"
     id="path5025"
     style="fill:#d4ff2a;stroke-width:0.525148"
     inkscape:label="arrow-right" />
</svg>
