<!-- This Source Code Form is subject to the terms of the Mozilla Public
   - License, v. 2.0. If a copy of the MPL was not distributed with this
   - file, You can obtain one at http://mozilla.org/MPL/2.0/. -->
<svg xmlns="http://www.w3.org/2000/svg" width="16" height="16" viewBox="0 0 16 16">
  <path fill="context-fill" fill-opacity="context-fill-opacity" d="M5 0a2 2 0 00-2 2v3h2V4h6v-.01c0-.05.1.01.15.01H14v6h-1v2h1a2 2 0 002-2V4a2 2 0 00-2-2h-2.85L9.58.54A2 2 0 008.22 0zm0 2h3.22l1.07 1H5z"/>
  <path fill="context-stroke" stroke-opacity="context-stroke-opacity" d="M6.01 5.98c-1.33 0-1.33 2.5 0 2.5h1.6l-.3.3c-.98.94.97 2.89 1.91 1.91l.3-.3v1.6c0 1.33 2.49 1.33 2.49 0v-4.5c0-.7-.82-1.48-1.36-1.5l-.14-.01h-4.5zM3.5 9c-.25 0-.5.17-.5.5v2.51H.5c-.67 0-.67 1 0 1H3v2.5c0 .67 1 .67 1 0v-2.5h2.5c.67 0 .67-1 0-1H4V9.5c0-.33-.25-.5-.5-.5z"/>
</svg>