<!-- This Source Code Form is subject to the terms of the Mozilla Public
   - License, v. 2.0. If a copy of the MPL was not distributed with this
   - file, You can obtain one at http://mozilla.org/MPL/2.0/. -->
<svg xmlns="http://www.w3.org/2000/svg" height="32" width="32">
  <path fill="#faebd1" d="M8 19h16v12H8z"/>
  <path fill="#b2917d" d="M10 18a3 3 0 00-3 3v8a3 3 0 003 3h12a3 3 0 003-3v-8a3 3 0 00-3-3zm12.29 2L16 24.92 9.7 20zM9 21.72l6.7 5.18c.1.1.2.1.3.1.11 0 .21 0 .3-.1l6.7-5.17V29c0 .55-.4.99-.95.99H10A.99.99 0 019 29z"/>
  <path fill="#4fc825" d="M16.7 8.3l3.25 3.23c.95.94-.48 2.36-1.42 1.42l-1.54-1.54v5.07c0 1.36-2.02 1.36-2 0v-5.06l-1.53 1.53c-.94.94-2.36-.48-1.41-1.42l3.24-3.24a1 1 0 011.41 0z"/>
  <path fill="#307cdb" d="M0 7h32V5h-9V1.5c0-.7-.79-1.5-1.5-1.5h-12C8.8 0 8 .8 8 1.5V5H0z"/>
  <path fill="#db3044" d="M0 0h6.5C7.2 0 8 .8 8 1.5V5H0z"/>
  <path fill="#f89200" d="M23 5V1.5c0-.7.79-1.5 1.5-1.5H32v5z"/>
</svg>
