<!-- This Source Code Form is subject to the terms of the Mozilla Public
   - License, v. 2.0. If a copy of the MPL was not distributed with this
   - file, You can obtain one at http://mozilla.org/MPL/2.0/. -->
<svg xmlns="http://www.w3.org/2000/svg" height="16" width="16">
  <path fill="context-fill" d="M8 1c-1.79 0-3.58.68-4.95 2.05l2.12 2.12a4.02 4.02 0 015.67 0l2.12-2.12A6.98 6.98 0 008.01.99zm-2.83 9.83l-2.12 2.12a7 7 0 009.9 0l-2.12-2.12a4 4 0 01-5.66 0z"/>
  <path fill="context-stroke" d="M3.05 3.05a7 7 0 000 9.9l2.12-2.12a4.01 4.01 0 010-5.66L3.05 3.05zm9.9 0l-2.12 2.12a4 4 0 010 5.66l2.12 2.12a7 7 0 000-9.9z"/>
</svg>