<!-- This Source Code Form is subject to the terms of the Mozilla Public
   - License, v. 2.0. If a copy of the MPL was not distributed with this
   - file, You can obtain one at http://mozilla.org/MPL/2.0/. -->
<svg xmlns="http://www.w3.org/2000/svg" width="16" height="16" viewBox="0 0 16 16">
  <path fill="context-fill" d="M8 1c-.5 0-1 .33-1 1v12c0 1.33 2 1.33 2 0V2c0-.67-.5-1-1-1zM5 5L2 8l3 3V5zm6 0v6l3-3-3-3z"/>
  <path fill="context-stroke" fill-opacity="context-stroke-opacity" d="M11.49 6c-.67 0-1.34.31-1.5.99H8c-1.32 0-1.32 2 0 2v5c0 1 1 2.01 2 2.01h3c1 0 2-1.01 2-2.01v-5c1.33 0 1.33-2 0-2h-2c-.16-.64-.83-.98-1.5-.99zm-1 2.99c.25 0 .5.17.5.5v4a.5.5 0 01-1 0v-4c0-.33.25-.5.5-.5zm1.98 0c.25 0 .5.17.5.5v4a.5.5 0 01-1 0v-4c0-.33.25-.5.5-.5z"/>
</svg>