<!-- This Source Code Form is subject to the terms of the Mozilla Public
   - License, v. 2.0. If a copy of the MPL was not distributed with this
   - file, You can obtain one at http://mozilla.org/MPL/2.0/. -->
<svg width="16" height="16" xmlns="http://www.w3.org/2000/svg" fill="context-fill" fill-opacity="context-fill-opacity">
  <path d="M8 0a8 8 0 100 16A8 8 0 008 0zm0 1.33A6.66 6.66 0 0113.33 4H2.67A6.66 6.66 0 018 1.33zM1.63 6H3.5L4 8h3l.5-2h1L9 8h3l.5-2h1.86A6.65 6.65 0 018 14.68 6.68 6.68 0 011.63 6zm3.2 2.99L4 9.62A4.9 4.9 0 008 12a4.97 4.97 0 004-2.38l-.83-.63c-1.01.8-1.62 1.59-3.17 1.59-1.55 0-2.16-.79-3.17-1.59z"/>
</svg>
