<!-- This Source Code Form is subject to the terms of the Mozilla Public
   - License, v. 2.0. If a copy of the MPL was not distributed with this
   - file, You can obtain one at http://mozilla.org/MPL/2.0/. -->
<svg 
  viewBox="0 0 16 16" 
  width="16" 
  height="16"
  version="1.1"
  id="svg1"
  sodipodi:docname="wildcard_filters.svg"
  inkscape:version="1.3.2 (091e20e, 2023-11-25, custom)"
  xmlns:inkscape="http://www.inkscape.org/namespaces/inkscape"
  xmlns:sodipodi="http://sodipodi.sourceforge.net/DTD/sodipodi-0.dtd"
  xmlns="http://www.w3.org/2000/svg"
  xmlns:svg="http://www.w3.org/2000/svg">
  <defs
     id="defs1" />  
  <sodipodi:namedview
     id="namedview1"
     pagecolor="#ffffff"
     bordercolor="#111111"
     borderopacity="1"
     inkscape:showpageshadow="0"
     inkscape:pageopacity="0"
     inkscape:pagecheckerboard="1"
     inkscape:deskcolor="#d1d1d1"
     inkscape:zoom="75"
     inkscape:cx="7.9933333"
     inkscape:cy="8"
     inkscape:window-width="2560"
     inkscape:window-height="1414"
     inkscape:window-x="-4"
     inkscape:window-y="1436"
     inkscape:window-maximized="1"
     inkscape:current-layer="svg1" />  
  <style>
    :root {
      --fill-opacity: context-fill-opacity;
    }
    
    path {
      --basiccolor: context-fill var(--in-content-page-color,rgb(20,20,20));
      --iconfill: var(--basiccolor);
      --iconstroke: color-mix(in srgb,var(--basiccolor) 20%,transparent);
      --star-fill: #fff86d;
      --starstroke: #b50000;
      --starstroke-opacity: 0.7;
    }
    @media (prefers-color-scheme: dark) {
      path { 
        --basiccolor: context-fill var(--in-content-page-color,rgb(251,251,254));
        --iconstroke: color-mix(in srgb,var(--basiccolor) 20%,transparent);
        --starstroke: #CC0000;
      }
    }        
  </style>  
  <path d="M3.5 3a.5.5 0 0 0-.5.5v1a.5.5 0 0 0 .5.5.5.5 0 0 0 .5-.5v-1a.5.5 0 0 0-.5-.5Zm4 0a.5.5 0 0 0-.5.5v6.59a1.51 1.51 0 0 0-1 1.416 1.507 1.507 0 0 0 1.5 1.496c.823 0 1.5-.678 1.5-1.5V11.5a1.512 1.512 0 0 0-1-1.41V3.5a.5.5 0 0 0-.5-.5Zm4 0a.5.5 0 0 0-.5.5v2a.5.5 0 0 0 .5.5.5.5 0 0 0 .5-.5v-2a.5.5 0 0 0-.5-.5ZM3.496 6.002A1.508 1.508 0 0 0 2 7.506a1.506 1.506 0 0 0 1 1.406V12.5a.5.5 0 0 0 .5.5.5.5 0 0 0 .5-.5V8.912c.58-.208 1-.763 1-1.41V7.5a1.51 1.51 0 0 0-1.504-1.498Zm.002 1a.494.494 0 0 1 .502.5.491.491 0 0 1-.488.498.5.5 0 0 0-.012 0 .5.5 0 0 0-.006.002A.492.492 0 0 1 3 7.504c0-.283.216-.502.498-.502Zm7.998 0A1.508 1.508 0 0 0 10 8.506a1.506 1.506 0 0 0 1 1.406V12.5a.5.5 0 0 0 .5.5.5.5 0 0 0 .5-.5V9.912c.58-.208 1-.763 1-1.41V8.5a1.51 1.51 0 0 0-1.504-1.498Zm.002 1c.282-.001.5.216.502.498v.002a.491.491 0 0 1-.488.498.5.5 0 0 0-.012 0 .5.5 0 0 0-.006.002.492.492 0 0 1-.494-.498c0-.283.216-.502.498-.502zm-4 3a.494.494 0 0 1 .502.5c0 .282-.218.5-.5.5a.492.492 0 0 1-.5-.498c0-.283.216-.502.498-.502z" 
    style="fill:var(--iconfill);stroke: var(--iconstroke);" 
    />
  <path
     d="M 5.4400001,4.8133333 3.1630739,4.0610386 1.2525273,5.5102285 1.2643933,3.1122711 -0.70425961,1.7430576 1.5800002,1.0133332 2.2738524,-1.2820772 3.6737366,0.66488575 6.0712137,0.61545759 4.65213,2.5484712 Z"
     style="stroke-width:0.734224;stroke-dasharray:none;fill:var(--star-fill);stroke:var(--starstroke);stroke-opacity:0.7;"
     inkscape:flatsided="false"
     sodipodi:sides="5"
     sodipodi:type="star"
     sodipodi:cx="2.8666668"
     sodipodi:cy="2.28"
     sodipodi:r1="3.6110694"
     sodipodi:r2="1.8055347"
     sodipodi:arg1="0.77756543"
     sodipodi:arg2="1.405884"
     inkscape:rounded="0"
     inkscape:randomized="0"
     inkscape:transform-center-x="0.21390174"
     inkscape:transform-center-y="-0.20497294"
     transform="matrix(1.1676518,0,0,1.2353394,4.0276435,3.3812204)"
     inkscape:label="star"
     id="star"
      />  
</svg>